<?xml version="1.0" encoding="utf-8"?>
<!-- Generator: Adobe Illustrator 16.0.0, SVG Export Plug-In . SVG Version: 6.00 Build 0)  -->
<!DOCTYPE svg PUBLIC "-//W3C//DTD SVG 1.1//EN" "http://www.w3.org/Graphics/SVG/1.1/DTD/svg11.dtd">
<svg version="1.1" id="Capa_1" xmlns="http://www.w3.org/2000/svg" xmlns:xlink="http://www.w3.org/1999/xlink" x="0px" y="0px"
	 width="150px" height="150px" viewBox="0 0 150 150" enable-background="new 0 0 150 150" xml:space="preserve">
<g>
	<g>
		<path fill="#699B78" d="M103.57,81.788H81.798v-2.711h21.404l0.007-11.875h-56.08v11.875h21.63v2.711H46.99
			c-1.37,0-2.573-1.201-2.573-2.572V66.84c0-1.318,1.13-2.35,2.573-2.35h56.581c1.361,0,2.352,0.99,2.352,2.35v12.376
			C105.92,80.658,104.888,81.788,103.57,81.788z"/>
		<path fill="#699B78" d="M99.813,114.5H50.968c-1.371,0-2.572-1.202-2.572-2.573V81.426c0-1.318,1.13-2.35,2.572-2.35h17.791v2.711
			H51.107v29.997h48.339l0.005-30.36c0,0.143,0.167,0.309,0.308,0.309v-2.711c1.349,0,2.407,1.056,2.407,2.404v30.5
			C102.164,113.37,101.129,114.5,99.813,114.5z"/>
		<path fill="#699B78" d="M83.154,114.5h-15.75V64.49h15.75V114.5L83.154,114.5z M70.115,111.787h10.328V67.203H70.115V111.787z"/>
		<path fill="#699B78" d="M87.876,67.042h-10.94c-0.881,0-2.181-0.799-2.751-2.093c-0.52-1.183-0.64-3.141,1.75-5.756
			c1.51-1.651,6.831-7.04,11.9-7.04c2.271,0,4.173,1.106,5.496,3.199c1.023,1.617,1.309,3.302,0.845,5.01
			c-1.055,3.915-5.804,6.424-6.005,6.529L87.876,67.042z M77.109,64.331h10.09c1.239-0.716,3.798-2.564,4.365-4.681
			c0.256-0.958,0.086-1.89-0.522-2.849c-0.837-1.322-1.854-1.936-3.206-1.936c-3.149,0-7.302,3.316-9.896,6.159
			c-0.994,1.083-1.475,2.064-1.322,2.691C76.701,64.051,76.972,64.254,77.109,64.331z"/>
		<path fill="#699B78" d="M73.431,67.042H62.489l-0.293-0.151c-0.201-0.105-4.953-2.614-6.008-6.529
			c-0.461-1.708-0.177-3.393,0.846-5.01c1.324-2.092,3.225-3.199,5.496-3.199c5.067,0,10.389,5.388,11.899,7.04
			c2.392,2.615,2.272,4.575,1.752,5.756C75.611,66.242,74.308,67.042,73.431,67.042z M63.17,64.331h10.089
			c0.138-0.077,0.408-0.28,0.49-0.617c0.152-0.626-0.327-1.607-1.321-2.692c-2.597-2.841-6.749-6.157-9.897-6.157
			c-1.351,0-2.369,0.614-3.205,1.936c-0.607,0.959-0.778,1.891-0.523,2.849C59.371,61.767,61.93,63.614,63.17,64.331z"/>
	</g>
</g>
</svg>
