<?xml version="1.0" encoding="utf-8"?>
<!-- Generator: Adobe Illustrator 16.0.0, SVG Export Plug-In . SVG Version: 6.00 Build 0)  -->
<!DOCTYPE svg PUBLIC "-//W3C//DTD SVG 1.1//EN" "http://www.w3.org/Graphics/SVG/1.1/DTD/svg11.dtd">
<svg version="1.1" id="Capa_1" xmlns="http://www.w3.org/2000/svg" xmlns:xlink="http://www.w3.org/1999/xlink" x="0px" y="0px"
	 width="150px" height="150px" viewBox="0 0 150 150" enable-background="new 0 0 150 150" xml:space="preserve">
<g>
	<path fill="#DDC190" d="M88.998,74.613c-5.003,0-9.802,1.519-13.877,4.393l-0.123,0.087l-0.122-0.086
		c-2.875-2.024-6.077-3.37-9.52-3.999l-0.522-0.096l9.962-6.522c0.506-0.329,0.712-0.954,0.502-1.519l-2.831-7.735
		c-0.177-0.479-0.646-0.963-1.201-0.963H50.852c-0.555,0-1.025,0.484-1.203,0.963l-2.831,7.671c-0.211,0.57-0.001,1.223,0.5,1.551
		l9.948,6.527l-0.529,0.1C45.213,77.047,36.85,87.046,36.85,98.761c0,13.319,10.835,24.155,24.153,24.155
		c5.008,0,9.81-1.519,13.885-4.391l0.122-0.086l0.12,0.086c4.082,2.873,8.878,4.392,13.868,4.392
		c13.317,0,24.152-10.835,24.152-24.152S102.315,74.613,88.998,74.613z M88.998,120.353c-11.903,0-21.587-9.685-21.587-21.588
		c0-3.876,1.042-7.68,3.015-11l0.128-0.217l0.191,0.17c1.048,0.923,1.961,1.996,2.714,3.188l0.064,0.103l-0.051,0.105
		c-1.165,2.364-1.781,5.01-1.781,7.65c0,9.542,7.763,17.306,17.305,17.306c9.543,0,17.307-7.764,17.307-17.306
		S98.54,81.459,88.997,81.459c-3.094,0-6.131,0.827-8.783,2.392l-0.155,0.093L79.944,83.8c-0.81-1.022-1.703-1.98-2.654-2.85
		l-0.202-0.186l0.23-0.148c3.473-2.249,7.512-3.438,11.68-3.438c11.903,0,21.587,9.684,21.587,21.586
		C110.585,110.668,100.901,120.353,88.998,120.353z M72.685,116.915c-3.477,2.249-7.517,3.438-11.682,3.438
		c-11.903,0-21.587-9.685-21.587-21.588c0-11.902,9.684-21.586,21.587-21.586S82.59,86.862,82.59,98.765
		c0,3.875-1.041,7.679-3.012,11l-0.13,0.219l-0.191-0.169c-1.048-0.923-1.963-1.997-2.719-3.192l-0.063-0.102l0.053-0.106
		c1.164-2.362,1.78-5.008,1.78-7.649c0-9.542-7.763-17.306-17.305-17.306c-9.543,0-17.307,7.764-17.307,17.306
		s7.764,17.306,17.307,17.306c3.1,0,6.135-0.827,8.777-2.392l0.161-0.094l0.114,0.144c0.801,1.015,1.696,1.975,2.659,2.854
		l0.201,0.185L72.685,116.915z M81.721,85.946c2.208-1.258,4.725-1.922,7.277-1.922c8.129,0,14.741,6.612,14.741,14.74
		c0,8.129-6.612,14.742-14.741,14.742c-2.543,0-5.056-0.665-7.268-1.925l-0.19-0.108l0.114-0.185c2.29-3.765,3.5-8.096,3.5-12.524
		c0-4.423-1.214-8.754-3.509-12.523l-0.113-0.188L81.721,85.946z M75.744,98.765c0,1.318-0.182,2.647-0.542,3.949L75,103.446
		l-0.205-0.732c-0.357-1.281-0.538-2.61-0.538-3.949c0-1.327,0.182-2.656,0.541-3.952l0.203-0.73l0.203,0.73
		C75.563,96.102,75.744,97.431,75.744,98.765z M68.28,111.587c-2.208,1.256-4.724,1.92-7.276,1.92
		c-8.129,0-14.742-6.612-14.742-14.74c0-8.129,6.613-14.742,14.742-14.742c2.543,0,5.056,0.665,7.268,1.924l0.188,0.107
		l-0.114,0.187c-2.289,3.763-3.499,8.093-3.499,12.522c0,4.429,1.213,8.761,3.508,12.527l0.114,0.187L68.28,111.587z M50.472,64.454
		l1.27-3.414h4.598L50.472,64.454z M65.822,61.04h4.551l1.266,3.402L65.822,61.04z M61.057,74.166l-8.737-5.72h17.476L61.057,74.166
		z M52.773,66.4l8.316-4.841l8.274,4.841H52.773z"/>
	<path fill="#DDC190" d="M76.586,55.259c0.345,0,0.675-0.134,0.906-0.366l4.829-4.828c0.242-0.242,0.376-0.563,0.376-0.906
		c0.001-0.342-0.133-0.665-0.376-0.907c-0.48-0.483-1.323-0.487-1.813,0l-4.828,4.83c-0.242,0.24-0.375,0.562-0.375,0.906
		s0.133,0.667,0.374,0.905C75.91,55.125,76.241,55.259,76.586,55.259z"/>
	<path fill="#DDC190" d="M61.197,48.592c0.677,0,1.435-0.548,1.435-1.282v-6.827c0-0.734-0.757-1.283-1.435-1.283
		c-0.677,0-1.434,0.549-1.434,1.283v6.827C59.764,48.043,60.521,48.592,61.197,48.592z"/>
	<path fill="#DDC190" d="M44.621,54.893c0.233,0.233,0.564,0.366,0.909,0.366c0.345,0,0.676-0.134,0.906-0.366
		c0.244-0.241,0.378-0.563,0.378-0.906c0-0.342-0.134-0.664-0.377-0.906l-4.828-4.83c-0.487-0.484-1.33-0.484-1.815,0
		c-0.242,0.242-0.375,0.564-0.375,0.907s0.133,0.664,0.375,0.906L44.621,54.893z"/>
</g>
</svg>
