<?xml version="1.0" encoding="utf-8"?>
<!-- Generator: Adobe Illustrator 16.0.0, SVG Export Plug-In . SVG Version: 6.00 Build 0)  -->
<!DOCTYPE svg PUBLIC "-//W3C//DTD SVG 1.1//EN" "http://www.w3.org/Graphics/SVG/1.1/DTD/svg11.dtd">
<svg version="1.1" id="Capa_1" xmlns="http://www.w3.org/2000/svg" xmlns:xlink="http://www.w3.org/1999/xlink" x="0px" y="0px"
	 width="150px" height="150px" viewBox="0 0 150 150" enable-background="new 0 0 150 150" xml:space="preserve">
<g>
	<g>
		<g>
			<g>
				<path fill="#DDC190" d="M75.145,56.182c0.744,0,1.345-0.604,1.345-1.348v-7.101c0-0.742-0.601-1.342-1.345-1.342
					c-0.741,0-1.342,0.601-1.342,1.342v7.101C73.8,55.578,74.403,56.182,75.145,56.182z"/>
				<path fill="#DDC190" d="M68.543,57.189c0.262,0.264,0.606,0.395,0.948,0.395c0.344,0,0.691-0.13,0.95-0.395
					c0.525-0.525,0.525-1.378,0-1.898l-5.019-5.021c-0.525-0.525-1.378-0.525-1.901,0c-0.525,0.527-0.525,1.377,0,1.901
					L68.543,57.189z"/>
				<path fill="#DDC190" d="M80.799,57.584c0.344,0,0.688-0.13,0.951-0.395l5.02-5.019c0.523-0.524,0.523-1.375-0.002-1.901
					c-0.524-0.525-1.375-0.525-1.898,0l-5.021,5.021c-0.524,0.521-0.524,1.375,0,1.898C80.112,57.454,80.454,57.584,80.799,57.584z"
					/>
				<path fill="#DDC190" d="M67.79,78.375c0.352,0,0.699-0.143,0.948-0.397c0.252-0.247,0.395-0.591,0.395-0.945
					c0-0.353-0.143-0.702-0.395-0.953c-0.25-0.249-0.596-0.389-0.948-0.389c-0.355,0-0.703,0.141-0.951,0.389
					c-0.252,0.253-0.395,0.599-0.395,0.953c0,0.355,0.142,0.7,0.395,0.945C67.087,78.231,67.434,78.375,67.79,78.375z"/>
				<path fill="#DDC190" d="M100.459,117.525l-7.363-3.456l-2.246-12.976c1.796-0.597,3.352-1.748,4.461-3.326
					c1.375-1.947,1.906-4.314,1.499-6.664l-5.253-30.322c-0.127-0.733-0.823-1.22-1.555-1.094l-14.854,2.574l-14.856-2.574
					c-0.734-0.13-1.428,0.361-1.557,1.094l-5.253,30.322c-0.764,4.399,1.851,8.616,5.961,9.99l-2.248,12.975l-7.363,3.457
					c-0.53,0.249-0.837,0.816-0.761,1.395c0.08,0.587,0.525,1.048,1.103,1.148l14.266,2.47c0.077,0.015,0.153,0.022,0.23,0.022
					c0.011,0,0.021,0,0.031,0c0.728-0.02,1.317-0.614,1.317-1.348c0-0.4-0.18-0.765-0.461-1.007l-5.71-5.679l2.248-12.976
					c0.061,0,0.125,0.003,0.188,0.003c4.349,0,8.042-3.114,8.784-7.402l4.082-23.549l4.079,23.549
					c0.744,4.288,4.438,7.402,8.783,7.402l0,0c0.064,0,0.128-0.003,0.191-0.003l2.249,12.976l-5.772,5.734
					c-0.416,0.413-0.517,1.049-0.246,1.567c0.235,0.456,0.696,0.731,1.191,0.731c0.078,0,0.155-0.008,0.23-0.022l14.267-2.47
					c0.577-0.098,1.024-0.562,1.102-1.148C101.299,118.342,100.991,117.774,100.459,117.525z M61.154,62.564l12.287,2.127
					l-1.103,6.358L60.055,68.92L61.154,62.564z M61.21,98.771c-3.388-0.586-5.666-3.818-5.08-7.206l3.464-19.991l12.288,2.124
					l-3.465,19.994c-0.52,2.998-3.096,5.173-6.133,5.173C61.924,98.864,61.567,98.832,61.21,98.771z M60.693,119.16l-5.855-1.012
					l3.284-1.542L60.693,119.16z M81.874,93.691l-3.462-19.995l12.284-2.123l3.464,19.991c0.284,1.64-0.087,3.295-1.049,4.656
					c-0.956,1.361-2.389,2.267-4.03,2.551c-0.355,0.061-0.716,0.093-1.073,0.093C84.973,98.864,82.393,96.689,81.874,93.691z
					 M89.137,62.564l1.102,6.357l-12.287,2.129l-1.099-6.358L89.137,62.564z M89.598,119.16l2.574-2.554l3.281,1.542L89.598,119.16z
					"/>
				<path fill="#DDC190" d="M82.063,74.767c-0.355,0-0.702,0.141-0.951,0.392c-0.249,0.25-0.395,0.595-0.395,0.951
					c0,0.354,0.146,0.699,0.395,0.95c0.249,0.25,0.599,0.392,0.951,0.392c0.354,0,0.699-0.142,0.95-0.392
					c0.249-0.252,0.395-0.596,0.395-0.95c0-0.355-0.146-0.703-0.395-0.951C82.764,74.908,82.417,74.767,82.063,74.767z"/>
				<path fill="#DDC190" d="M90.262,77.061c0.252-0.252,0.395-0.595,0.395-0.95c0-0.353-0.143-0.702-0.395-0.951
					c-0.249-0.252-0.596-0.392-0.95-0.392c-0.355,0-0.702,0.141-0.951,0.392c-0.249,0.25-0.392,0.598-0.392,0.951
					c0,0.355,0.143,0.699,0.392,0.95c0.25,0.25,0.596,0.393,0.951,0.393C89.666,77.453,90.013,77.31,90.262,77.061z"/>
				<path fill="#DDC190" d="M86.342,79.715c-0.354,0-0.703,0.145-0.956,0.392c-0.246,0.25-0.39,0.599-0.39,0.954
					s0.144,0.699,0.39,0.95c0.255,0.249,0.602,0.392,0.956,0.392c0.353,0,0.697-0.143,0.945-0.392
					c0.255-0.252,0.397-0.595,0.397-0.95s-0.143-0.705-0.397-0.954C87.041,79.859,86.694,79.715,86.342,79.715z"/>
				<path fill="#DDC190" d="M60.979,79.268c-0.353,0-0.697,0.141-0.951,0.389c-0.247,0.252-0.395,0.598-0.395,0.956
					c0,0.354,0.148,0.697,0.395,0.948c0.255,0.25,0.598,0.395,0.951,0.395c0.352,0,0.702-0.145,0.95-0.395
					c0.252-0.252,0.395-0.595,0.395-0.948c0-0.358-0.143-0.705-0.395-0.956C61.681,79.407,61.334,79.268,60.979,79.268z"/>
				<path fill="#DDC190" d="M67.389,83.706c0-0.355-0.142-0.702-0.395-0.951c-0.249-0.249-0.595-0.392-0.95-0.392
					c-0.35,0-0.697,0.143-0.945,0.392c-0.255,0.25-0.397,0.596-0.397,0.951c0,0.354,0.143,0.699,0.397,0.947
					c0.25,0.253,0.595,0.395,0.945,0.395c0.355,0,0.703-0.142,0.95-0.395C67.245,84.405,67.389,84.061,67.389,83.706z"/>
			</g>
		</g>
	</g>
</g>
</svg>
