<?xml version="1.0" standalone="no"?>
<!DOCTYPE svg PUBLIC "-//W3C//DTD SVG 20010904//EN"
 "http://www.w3.org/TR/2001/REC-SVG-20010904/DTD/svg10.dtd">
<svg version="1.0" xmlns="http://www.w3.org/2000/svg"
 width="4501.000000pt" height="8001.000000pt" viewBox="0 0 4501.000000 8001.000000"
 preserveAspectRatio="xMidYMid meet">
<metadata>
Created by potrace 1.16, written by Peter Selinger 2001-2019
</metadata>
<g transform="translate(0.000000,8001.000000) scale(0.100000,-0.100000)"
fill="#000000" stroke="none">
<path d="M0 71319 c0 -6358 3 -8688 11 -8683 6 3 183 138 393 298 209 160 537
410 728 555 334 253 346 263 338 289 -363 1229 -497 2328 -429 3522 68 1204
354 2379 855 3511 l74 167 0 3506 0 3506 2558 0 2558 0 49 88 c160 291 369
718 490 1002 60 142 63 145 101 159 34 12 44 12 69 0 56 -27 59 -53 19 -170
-55 -164 -156 -501 -234 -784 -39 -143 -74 -268 -76 -277 -5 -17 150 -18 3159
-18 l3164 0 154 158 c390 398 879 966 1407 1634 95 120 172 220 172 223 0 3
-3501 5 -7780 5 l-7780 0 0 -8691z"/>
<path d="M15720 79938 c-113 -148 -532 -670 -701 -873 -309 -371 -547 -640
-806 -912 l-155 -163 519 0 520 0 180 368 c100 202 218 448 263 547 44 99 90
188 102 198 42 36 129 13 142 -38 8 -30 -104 -280 -331 -738 -90 -181 -163
-331 -163 -333 0 -2 161 -3 357 -2 l357 3 142 295 c293 604 576 1225 769 1688
l14 32 -577 0 -577 0 -55 -72z"/>
<path d="M17076 79918 c-139 -340 -459 -1046 -724 -1597 l-160 -331 1908 0
1908 0 169 91 c767 417 2652 1191 4368 1794 193 67 357 125 365 128 8 3 -1743
6 -3891 6 l-3906 1 -37 -92z"/>
<path d="M25195 79943 c-776 -266 -1293 -452 -1885 -678 -1150 -438 -2126
-849 -2750 -1159 l-225 -111 705 -3 704 -2 315 175 c322 179 353 191 402 164
28 -15 41 -54 28 -83 -8 -17 -74 -59 -215 -138 l-204 -113 521 -3 521 -2 381
247 c933 603 2698 1751 2712 1764 5 5 -158 9 -405 8 l-415 0 -190 -66z"/>
<path d="M26220 79823 c-342 -223 -2164 -1407 -2545 -1654 l-270 -174 2498 -3
c1373 -1 3620 -1 4992 0 l2495 3 -268 241 c-721 651 -1283 1120 -1955 1633
-82 62 -151 120 -154 127 -4 12 -347 14 -2257 14 l-2251 0 -285 -187z"/>
<path d="M31136 80002 c5 -5 99 -78 209 -162 605 -464 1263 -1018 1934 -1628
l244 -222 4763 0 4764 0 0 -3229 c0 -3067 1 -3230 18 -3235 37 -11 285 -56
442 -80 376 -58 767 -86 1206 -86 l294 0 0 4325 0 4325 -6942 0 c-3818 0
-6938 -4 -6932 -8z"/>
<path d="M2010 74508 l0 -3443 128 250 c345 673 720 1252 1207 1860 252 315
444 529 910 1012 867 901 1626 1860 2292 2899 152 236 513 842 513 860 0 2
-1136 4 -2525 4 l-2525 0 0 -3442z"/>
<path d="M7246 77928 c-7 -13 -52 -91 -99 -174 -332 -589 -788 -1279 -1246
-1889 -492 -655 -1021 -1271 -1642 -1910 -112 -116 -251 -262 -309 -326 -560
-613 -1052 -1292 -1454 -2004 -123 -218 -333 -635 -424 -841 l-62 -141 0
-2644 1 -2644 173 475 c456 1249 848 2275 1336 3495 535 1337 1160 2823 1201
2858 32 26 100 23 127 -6 12 -13 22 -31 22 -40 0 -9 -45 -121 -101 -249 -830
-1914 -1860 -4536 -2628 -6690 l-131 -367 0 -208 c0 -199 1 -207 18 -187 9 12
105 127 213 255 1049 1255 1973 2599 2669 3884 138 255 435 860 548 1115 369
837 623 1608 771 2348 46 232 76 424 131 852 205 1584 495 3190 824 4560 42
173 87 354 99 402 13 48 22 90 19 93 -13 12 -43 3 -56 -17z m-1831 -4252 c43
-18 53 -52 32 -104 -8 -20 -105 -220 -215 -443 -128 -261 -208 -412 -223 -423
-50 -35 -139 -4 -139 49 0 22 408 872 433 904 25 31 64 37 112 17z"/>
<path d="M7475 77894 c-27 -94 -150 -601 -219 -904 -293 -1290 -533 -2667
-735 -4220 -71 -544 -121 -816 -228 -1235 -388 -1531 -1268 -3319 -2508 -5094
-69 -99 -125 -182 -125 -185 0 -3 102 83 228 192 609 529 1271 1079 1841 1531
356 282 493 403 762 671 314 313 513 538 781 880 450 576 943 1359 1291 2051
75 149 93 194 122 312 82 327 115 576 122 937 11 543 -62 1049 -222 1548 l-45
139 -46 7 c-166 22 -270 155 -229 292 37 124 186 201 337 174 72 -13 104 -28
153 -72 50 -43 75 -97 75 -158 0 -68 -22 -115 -75 -164 l-44 -41 44 -138 c190
-589 271 -1309 214 -1896 -5 -57 -8 -105 -6 -107 4 -4 191 428 280 646 220
540 456 1210 607 1725 34 116 65 221 69 234 6 21 1 30 -33 56 -22 17 -54 50
-71 74 -26 37 -30 52 -30 104 1 94 48 162 144 209 54 26 174 36 237 19 59 -16
130 -65 161 -112 24 -37 28 -52 28 -115 0 -64 -3 -77 -30 -115 -37 -53 -102
-95 -173 -111 l-53 -13 -20 -70 c-112 -384 -231 -758 -334 -1045 -30 -85 -54
-155 -52 -156 1 -1 29 20 62 48 145 121 415 277 536 309 59 16 102 0 119 -42
19 -44 -4 -70 -97 -108 -194 -81 -381 -208 -538 -366 -172 -173 -266 -327
-398 -652 -137 -335 -356 -822 -496 -1100 -38 -77 -80 -171 -92 -209 -12 -37
-32 -78 -45 -91 -12 -12 -64 -100 -115 -195 -457 -854 -979 -1634 -1504 -2248
-58 -68 -77 -96 -55 -79 223 166 896 644 1085 769 96 63 113 76 374 271 506
377 1207 996 1749 1541 l122 123 116 305 c583 1540 1272 3046 1877 4100 441
770 880 1365 1261 1710 64 58 116 108 116 113 0 4 -1413 7 -3139 7 l-3140 0
-16 -56z"/>
<path d="M13853 77795 c-318 -294 -548 -566 -835 -990 -599 -882 -1327 -2335
-2006 -4000 -135 -333 -290 -730 -286 -734 6 -7 296 262 532 494 1149 1129
2283 2652 3285 4411 199 351 527 954 527 971 0 2 -236 3 -525 3 l-524 0 -168
-155z"/>
<path d="M15263 77938 c-6 -7 -59 -105 -118 -218 -947 -1798 -2100 -3481
-3212 -4689 -303 -330 -298 -322 -118 -171 1334 1120 2414 2187 2975 2940 177
238 259 369 440 705 271 502 740 1410 740 1433 0 18 -694 17 -707 0z"/>
<path d="M16039 77688 c-207 -415 -515 -1002 -727 -1388 -96 -176 -268 -441
-393 -606 -390 -517 -997 -1164 -1709 -1823 -80 -74 -158 -148 -175 -164 l-30
-30 35 20 c169 99 2334 1371 3002 1764 1324 779 1399 827 2358 1494 556 387
930 634 1253 827 147 88 267 162 267 164 0 2 -844 4 -1875 4 l-1875 0 -131
-262z"/>
<path d="M20075 77849 c-478 -269 -844 -505 -1625 -1049 -443 -309 -920 -628
-1185 -792 -205 -127 -599 -360 -2212 -1308 -678 -398 -1231 -725 -1229 -727
3 -3 685 321 1261 599 1527 738 3319 1641 4790 2416 771 405 1749 932 1769
952 7 7 -231 10 -690 10 l-700 0 -179 -101z"/>
<path d="M21980 77943 c-8 -4 -123 -66 -255 -138 -2342 -1287 -5638 -2950
-8372 -4225 -122 -57 -221 -106 -219 -108 13 -13 1552 413 2281 632 1989 596
3199 1063 3995 1541 653 393 3619 2275 3620 2298 0 8 -1028 8 -1050 0z"/>
<path d="M23330 77943 c-8 -4 -186 -117 -395 -251 -1499 -966 -2799 -1789
-3400 -2151 -608 -367 -1289 -663 -2440 -1061 -908 -314 -2118 -676 -3401
-1019 -407 -109 -1219 -317 -1271 -326 -33 -5 -61 -23 -125 -79 -380 -331
-1068 -893 -1548 -1266 -138 -106 -245 -202 -420 -374 -289 -284 -501 -483
-774 -725 -116 -102 -224 -198 -240 -213 -23 -20 20 -4 164 63 1468 686 3647
1367 6403 2003 l328 76 242 144 c692 410 1302 744 1987 1087 370 185 707 345
745 355 36 9 93 -20 101 -52 14 -54 -7 -69 -251 -183 -411 -192 -935 -459
-1430 -729 -286 -155 -895 -502 -895 -509 0 -3 12 -2 26 1 70 18 912 191 1146
236 210 40 287 59 363 90 407 166 915 284 1430 332 211 20 785 17 1005 -5 344
-35 643 -87 965 -169 182 -46 472 -139 510 -164 51 -33 41 -94 -21 -120 -90
-38 -1053 -262 -1454 -338 -502 -96 -637 -111 -905 -103 -436 14 -920 118
-1429 309 l-188 71 -247 -47 c-298 -57 -909 -184 -1311 -272 -194 -42 -313
-73 -347 -90 -40 -20 -61 -25 -88 -20 -42 8 -505 -98 -1335 -305 -718 -179
-1189 -305 -1920 -515 l-135 -39 60 -7 c33 -3 126 -11 206 -17 412 -30 836
-144 1182 -317 130 -65 994 -535 1050 -570 31 -20 37 -30 37 -58 0 -70 -60
-87 -376 -107 -355 -22 -763 18 -1139 112 -507 127 -1000 363 -1433 686 -75
57 -142 103 -149 103 -19 0 -756 -245 -1037 -345 -1004 -357 -1824 -721 -2401
-1068 -267 -160 -825 -541 -1335 -911 -1241 -900 -2746 -2122 -4038 -3280
-195 -174 -225 -206 -340 -356 -282 -366 -658 -828 -940 -1154 -62 -71 -110
-131 -108 -133 2 -2 226 162 497 365 2288 1707 3771 2744 4504 3145 417 228
1620 663 3615 1305 1334 430 3772 1182 3832 1182 66 0 102 -77 56 -121 -33
-30 -860 -686 -1288 -1020 -3042 -2375 -5344 -3995 -6499 -4574 -654 -327
-2415 -1011 -4353 -1691 l-368 -129 0 -973 0 -972 104 117 c121 137 173 188
162 159 -30 -83 -37 -464 -16 -831 18 -315 -6 -535 -85 -771 -30 -92 -107
-256 -152 -326 -9 -15 -15 -30 -11 -33 3 -3 88 41 189 98 101 57 218 121 259
142 92 48 196 149 263 256 l47 76 10 126 c24 288 128 526 312 707 63 62 191
155 196 142 6 -19 -101 -469 -129 -542 -52 -136 -154 -270 -279 -369 -36 -29
-66 -63 -86 -101 -17 -32 -47 -81 -67 -109 -21 -28 -37 -53 -37 -55 0 -3 145
67 323 153 352 173 515 248 797 367 102 42 188 80 193 84 4 3 -3 47 -15 96
-19 76 -22 117 -23 279 0 202 16 319 55 394 96 188 381 410 848 660 143 76
443 221 459 221 4 0 -5 -12 -19 -27 -52 -55 -143 -213 -265 -463 -68 -140
-147 -300 -174 -356 -119 -243 -292 -463 -504 -641 l-50 -42 167 57 c108 37
168 63 171 73 5 18 150 53 287 69 124 15 396 12 544 -5 183 -21 298 -46 576
-125 409 -115 637 -170 775 -186 70 -9 74 -7 -140 -69 -219 -65 -462 -122
-663 -157 -208 -36 -508 -49 -628 -29 -169 30 -446 193 -644 380 l-75 71 -125
-42 c-188 -62 -372 -133 -735 -283 -207 -86 -648 -285 -643 -291 2 -1 46 4 98
12 133 22 459 21 620 0 261 -35 410 -73 890 -230 246 -80 461 -140 584 -163
50 -9 95 -20 99 -24 10 -8 -389 -107 -578 -143 -447 -85 -818 -107 -1028 -62
-201 44 -534 275 -734 509 l-49 59 -220 -112 c-251 -129 -379 -197 -656 -353
l-198 -110 0 -119 0 -118 78 0 c154 0 465 -47 662 -101 41 -11 192 -59 335
-105 423 -138 804 -244 879 -244 98 0 -61 -50 -399 -124 -389 -86 -708 -128
-980 -128 -239 -1 -344 18 -477 87 -49 25 -91 45 -94 45 -2 0 -3 -10836 -2
-24081 l3 -24081 340 -152 c2047 -918 3955 -1884 5815 -2944 2407 -1371 4527
-2761 6769 -4439 l485 -363 5191 0 5191 0 190 232 c104 127 195 239 202 249
11 16 -4 46 -121 241 -460 764 -799 1512 -1043 2301 -224 725 -352 1396 -416
2182 -21 254 -17 1145 5 1405 91 1046 321 1977 718 2917 157 370 323 701 559
1113 573 999 995 1935 1346 2985 269 807 491 1730 563 2345 18 147 20 159 43
180 26 24 84 26 113 4 19 -14 20 -28 21 -647 1 -610 7 -828 40 -1417 67 -1229
228 -2699 445 -4090 57 -365 86 -574 103 -745 65 -640 56 -1333 -25 -2075
-129 -1185 -452 -2497 -953 -3879 -9 -24 -14 -46 -12 -48 2 -2 50 63 107 144
381 546 926 1285 1374 1863 242 312 318 418 449 630 527 848 912 1859 1193
3135 48 219 48 220 47 395 -6 735 -294 1614 -766 2338 l-80 122 -64 0 c-88 0
-162 29 -213 85 -50 54 -61 81 -61 144 0 100 79 186 199 217 233 59 435 -145
322 -327 -17 -28 -31 -52 -31 -54 0 -2 38 -62 84 -132 226 -347 430 -772 565
-1179 53 -160 131 -462 151 -582 7 -40 14 -72 15 -70 6 6 53 356 79 588 69
609 106 1227 106 1756 l0 302 -55 26 c-180 88 -188 296 -15 390 43 23 71 30
131 34 94 5 159 -14 218 -64 134 -116 97 -296 -76 -369 l-33 -14 0 -283 c0
-261 -11 -597 -28 -876 -7 -103 -6 -112 8 -94 8 11 42 54 74 97 112 144 338
336 414 351 36 7 88 -18 97 -46 11 -33 -4 -58 -53 -92 -89 -60 -211 -169 -280
-251 -124 -146 -200 -280 -257 -450 -41 -123 -57 -213 -90 -497 -34 -288 -97
-721 -144 -987 -22 -120 -42 -254 -46 -298 -4 -44 -13 -87 -20 -95 -7 -8 -29
-91 -49 -185 -185 -848 -460 -1673 -785 -2360 -34 -71 -53 -121 -43 -110 10
11 86 99 168 195 180 211 394 455 608 690 504 554 985 1218 1486 2050 l123
205 18 230 c135 1716 411 3431 739 4584 173 609 389 1137 595 1456 375 579
681 1175 1117 2175 383 878 919 2255 1286 3305 95 270 99 280 128 294 77 35
116 -1 149 -134 88 -361 121 -772 112 -1380 -13 -829 -110 -1745 -313 -2960
-126 -753 -367 -1948 -495 -2460 -162 -643 -612 -1540 -1305 -2598 -68 -103
-121 -187 -119 -187 5 0 262 242 2250 2119 1072 1012 1234 1176 1935 1961 747
835 1191 1264 1775 1709 586 448 1517 1086 2453 1680 l272 174 0 24908 0
24909 -22 5 c-1075 236 -2133 691 -3319 1426 -885 548 -2179 1478 -3044 2188
-660 542 -1147 977 -2360 2111 -291 272 -597 557 -678 633 l-149 137 -5046 -1
c-2776 0 -5054 -3 -5062 -6z m-5966 -3543 c208 -78 261 -317 101 -458 -167
-147 -469 -105 -570 80 -41 75 -41 161 0 236 79 146 289 209 469 142z m20666
-49163 c127 -61 194 -157 194 -276 -1 -121 -66 -215 -192 -274 -63 -30 -74
-32 -182 -32 -108 0 -119 2 -180 31 -84 40 -129 79 -165 146 -25 45 -29 64
-29 128 0 104 41 179 130 241 82 56 135 70 259 66 95 -2 118 -7 165 -30z
m1581 -2991 c142 -31 265 -120 321 -234 29 -59 33 -76 33 -147 -1 -96 -29
-167 -95 -239 -88 -96 -200 -144 -350 -153 -161 -9 -299 38 -401 138 -70 69
-101 137 -107 234 -6 115 20 179 107 266 126 126 304 174 492 135z"/>
<path d="M37723 25212 c-208 -74 -274 -276 -138 -417 25 -25 71 -58 103 -73
51 -24 69 -27 162 -27 87 1 113 4 154 23 72 33 119 74 151 133 71 132 7 280
-152 351 -68 31 -208 36 -280 10z"/>
<path d="M33582 77941 c1 -4 75 -75 163 -157 88 -82 365 -340 615 -574 1823
-1704 2491 -2266 3900 -3276 1372 -984 2369 -1566 3375 -1969 443 -178 975
-344 1343 -420 l32 -7 -2 3204 -3 3203 -4713 3 c-2624 1 -4712 -2 -4710 -7z"/>
<path d="M19965 73263 c-363 -12 -765 -70 -1105 -159 -160 -41 -470 -143 -470
-154 0 -11 378 -135 550 -179 303 -79 513 -114 777 -131 265 -16 471 7 1033
120 461 92 1085 239 1072 252 -22 22 -473 131 -718 172 -293 49 -788 91 -999
84 -33 -1 -96 -3 -140 -5z"/>
<path d="M43050 46549 l0 -24891 33 20 c17 10 127 77 242 149 566 349 1170
698 1593 918 l92 49 0 24240 0 24241 -338 1 c-538 1 -1004 45 -1492 140 -69
13 -126 24 -127 24 -2 0 -3 -11201 -3 -24891z"/>
<path d="M12492 71422 c-29 -19 340 -253 593 -377 510 -249 1025 -375 1605
-391 341 -10 351 -27 -127 233 -224 122 -448 241 -496 263 -305 143 -679 236
-1082 270 -143 12 -475 13 -493 2z"/>
<path d="M1883 70330 c-188 -474 -356 -1030 -467 -1552 -316 -1475 -285 -2999
90 -4476 30 -119 56 -217 57 -218 2 -2 176 491 368 1044 l39 113 -2 2647 -3
2647 -82 -205z"/>
<path d="M13735 69794 c-2578 -793 -4140 -1296 -5270 -1699 -837 -298 -1186
-444 -1506 -630 -750 -435 -2231 -1480 -4431 -3124 l-517 -386 -1 -432 c0
-238 2 -433 4 -433 15 0 941 436 1441 678 2478 1200 4591 2434 5553 3244 75
63 98 78 126 78 61 0 100 -51 80 -104 -7 -19 -215 -190 -399 -327 -838 -628
-2133 -1407 -3710 -2234 -387 -202 -1495 -754 -1935 -964 -357 -170 -1059
-498 -1126 -526 l-34 -14 0 -70 0 -70 38 13 c20 8 217 78 437 156 2218 788
3703 1375 4325 1709 950 510 2588 1638 4695 3234 1034 784 2627 2026 2573
2006 -2 0 -156 -48 -343 -105z m-3130 -1829 c27 -26 32 -63 13 -84 -7 -7 -230
-152 -494 -322 -432 -277 -486 -309 -523 -309 -28 0 -47 6 -61 20 -25 25 -26
72 -2 93 9 8 231 153 492 321 520 334 522 335 575 281z"/>
<path d="M1936 64618 c-51 -140 -163 -468 -160 -468 1 0 45 50 98 110 l96 111
0 159 c0 88 -2 160 -4 160 -2 0 -16 -33 -30 -72z"/>
<path d="M1513 63578 c-402 -304 -1404 -1067 -1480 -1127 l-33 -26 0 -112 c0
-62 3 -113 6 -113 18 0 1286 558 1754 772 l205 94 3 422 c1 249 -2 422 -7 422
-5 0 -206 -149 -448 -332z"/>
<path d="M1585 62727 c-198 -90 -471 -212 -607 -272 -136 -60 -246 -110 -244
-112 3 -3 574 193 1091 374 l140 49 3 62 c2 46 0 62 -10 62 -7 0 -175 -74
-373 -163z"/>
<path d="M1495 62444 c-242 -84 -674 -233 -960 -331 -286 -97 -523 -179 -528
-183 -4 -3 -6 -968 -5 -2143 l3 -2137 150 111 c483 359 1021 722 1470 993 99
60 186 115 194 122 11 10 3 24 -44 80 -123 145 -241 358 -297 538 -28 90 -30
108 -25 195 6 112 31 193 108 345 60 120 204 338 323 491 l86 109 0 983 c0
930 -1 983 -17 982 -10 0 -216 -70 -458 -155z"/>
<path d="M1920 58879 c-14 -11 -36 -24 -49 -30 -26 -10 -291 -168 -291 -173 0
-2 26 1 58 6 31 6 118 13 192 16 l135 7 3 98 c3 106 -2 114 -48 76z"/>
<path d="M1405 58568 c-370 -231 -865 -572 -1248 -860 l-157 -118 0 -23388 0
-23387 63 -24 c215 -83 1156 -477 1602 -671 154 -67 286 -124 293 -127 9 -4
12 4816 12 24081 l0 24085 -62 42 c-125 84 -225 169 -335 283 -62 64 -113 116
-115 116 -2 0 -25 -14 -53 -32z"/>
<path d="M36216 23052 c-798 -2232 -1637 -4148 -2199 -5022 -148 -231 -190
-304 -273 -475 -410 -843 -752 -2298 -993 -4230 -62 -493 -135 -1195 -129
-1243 3 -22 20 -1 109 133 571 859 1084 1909 1513 3098 360 998 660 2083 881
3192 65 325 151 814 171 975 9 68 37 100 89 100 38 0 85 -35 85 -64 0 -60 -88
-580 -161 -956 -363 -1855 -956 -3663 -1665 -5081 -110 -222 -286 -555 -332
-629 -35 -56 13 5 142 183 1198 1650 1936 2964 2137 3805 57 237 178 798 254
1172 299 1479 479 2757 535 3805 13 246 13 820 0 1017 -12 175 -48 480 -58
490 -4 3 -52 -118 -106 -270z"/>
<path d="M44784 22506 c-400 -216 -892 -503 -1446 -844 l-288 -177 0 -577 c0
-318 2 -578 4 -578 4 0 846 874 1559 1619 l397 415 0 128 c0 70 -3 128 -7 128
-5 0 -103 -51 -219 -114z"/>
<path d="M44393 21493 c-336 -351 -776 -809 -977 -1018 l-366 -380 0 -2503 0
-2503 30 -26 c21 -17 30 -34 30 -54 0 -20 -9 -35 -30 -51 l-30 -22 0 -2716 0
-2717 143 -12 c294 -24 505 -33 612 -27 l110 6 -100 -55 c-126 -68 -425 -210
-615 -291 l-145 -62 -3 -3516 -2 -3516 -7671 0 -7671 0 -432 -264 c-898 -549
-2764 -1663 -2936 -1753 -21 -11 1798 -13 10323 -13 l10347 0 0 11065 c0 6086
-1 11065 -3 11065 -2 0 -278 -287 -614 -637z"/>
<path d="M42950 21421 c-25 -16 -160 -102 -300 -192 -547 -348 -1205 -791
-1655 -1112 -725 -518 -1092 -823 -1590 -1322 -268 -267 -384 -392 -971 -1045
-594 -662 -596 -664 -2219 -2194 -599 -566 -1119 -1058 -1155 -1094 l-65 -65
90 69 c351 268 1414 1107 2010 1588 1579 1272 3349 2767 4449 3755 298 268
301 271 343 271 40 0 83 -37 83 -71 0 -27 -10 -37 -355 -344 -1907 -1700
-4524 -3855 -6825 -5619 -157 -121 -292 -225 -300 -234 -8 -8 192 90 445 217
2306 1157 3960 2151 4696 2823 199 182 797 778 1471 1466 611 623 880 900
1616 1659 l292 301 0 586 c0 322 -3 586 -7 586 -5 0 -28 -13 -53 -29z"/>
<path d="M42651 19682 c-1281 -1325 -2708 -2765 -2941 -2968 -717 -626 -2027
-1433 -3945 -2432 -309 -160 -1350 -680 -1658 -828 l-228 -109 -161 -225
c-292 -406 -607 -824 -964 -1275 -124 -158 -211 -279 -273 -384 -204 -340
-564 -896 -714 -1101 -30 -41 -54 -76 -52 -78 1 -2 63 44 136 101 1136 885
3043 1954 5446 3052 l312 143 248 234 c443 420 814 750 1253 1117 426 357 831
674 874 685 39 10 94 -17 102 -50 4 -15 2 -34 -3 -43 -6 -9 -103 -88 -216
-177 -226 -176 -529 -421 -762 -619 -378 -319 -1100 -972 -1055 -952 8 3 186
80 395 170 209 90 491 210 627 266 196 80 269 116 350 170 600 398 1341 649
2171 736 416 43 941 37 1331 -16 43 -5 80 -8 82 -6 2 2 3 1118 2 2479 l-3
2476 -354 -366z"/>
<path d="M27807 17075 c-24 -122 -139 -566 -212 -819 -264 -917 -598 -1775
-1035 -2661 -167 -338 -272 -535 -501 -936 -403 -708 -672 -1315 -880 -1988
-223 -724 -351 -1424 -400 -2196 -15 -240 -15 -824 0 -1060 68 -1064 292
-2055 686 -3036 189 -469 460 -1021 689 -1399 l51 -85 7 115 c4 63 14 246 23
405 113 2056 319 4387 581 6570 79 657 132 1052 143 1074 14 26 71 44 102 32
13 -5 32 -18 42 -29 17 -19 17 -25 -2 -168 -46 -331 -155 -1235 -221 -1829
-207 -1871 -368 -3763 -464 -5460 -14 -242 -28 -478 -30 -525 l-5 -85 132 265
c224 446 483 1028 690 1550 1013 2549 1419 4873 1176 6735 -5 44 -30 206 -54
360 -285 1815 -442 3377 -503 5015 -5 139 -10 183 -15 155z m-557 -4510 l24
-26 -82 -457 c-77 -424 -85 -459 -108 -479 -41 -37 -110 -28 -134 17 -17 31
145 917 173 948 30 32 95 31 127 -3z"/>
<path d="M42000 15003 c-745 -26 -1437 -192 -2036 -487 -163 -80 -387 -207
-398 -225 -10 -15 278 -52 559 -72 206 -14 572 -6 735 16 269 37 385 71 754
219 339 137 881 377 1100 488 l69 35 -84 7 c-246 21 -481 27 -699 19z"/>
<path d="M42860 14847 c-593 -283 -1261 -569 -1536 -657 -238 -76 -473 -110
-815 -117 -340 -8 -607 12 -984 73 l-160 26 -230 -95 c-691 -286 -1396 -597
-1441 -637 -24 -20 -45 -30 -68 -30 -64 0 -1260 -562 -2081 -979 -379 -192
-877 -453 -872 -456 1 -1 56 6 123 16 455 66 973 37 1369 -77 183 -52 1051
-315 1093 -330 64 -24 82 -72 40 -111 -13 -12 -80 -39 -150 -61 -228 -73 -467
-118 -757 -143 -175 -15 -593 -6 -766 15 -451 57 -908 189 -1302 376 l-123 59
-257 -148 c-1012 -581 -1808 -1123 -2374 -1616 -340 -297 -909 -918 -1570
-1715 -748 -901 -1578 -1999 -2316 -3065 -350 -506 -371 -540 -458 -750 -163
-393 -388 -891 -557 -1230 -50 -99 -83 -173 -75 -165 8 8 182 218 387 465
1023 1233 1865 2208 2529 2930 234 255 752 772 874 872 553 457 2711 1726
5893 3466 372 204 391 211 439 162 28 -27 30 -37 13 -68 -28 -53 -985 -1271
-1539 -1960 -1843 -2287 -3270 -3884 -4129 -4622 -425 -365 -1457 -1064 -2899
-1962 -190 -119 -355 -222 -366 -229 -16 -12 1188 -14 7598 -14 l7617 0 0
3485 c0 1917 -3 3485 -7 3485 -5 0 -53 -16 -108 -36 -227 -82 -455 -143 -611
-164 -55 -7 -144 -10 -225 -7 -116 4 -150 9 -255 40 -234 70 -513 198 -695
320 l-86 58 -119 -67 c-223 -124 -474 -279 -547 -336 -39 -32 -80 -58 -90 -58
-20 0 -195 -113 -457 -294 -210 -146 -531 -378 -527 -382 1 -1 61 17 132 41
324 108 663 152 1090 142 257 -6 343 -15 768 -77 417 -60 702 -90 921 -97
l199 -6 -39 -20 c-213 -109 -698 -308 -991 -407 -374 -125 -619 -178 -864
-187 -182 -7 -242 2 -408 56 -295 98 -596 257 -817 432 -40 33 -76 59 -78 59
-2 0 -89 -66 -193 -146 -480 -373 -1063 -870 -1105 -941 -11 -17 -25 -30 -32
-27 -7 3 -48 -28 -92 -67 -154 -141 -249 -232 -234 -227 349 125 689 178 1141
178 275 0 463 -14 744 -56 657 -97 1059 -139 1273 -132 61 2 112 2 112 0 0 -1
-44 -23 -97 -48 -639 -299 -1228 -507 -1659 -585 -167 -30 -422 -37 -533 -15
-297 60 -781 294 -1034 501 -31 25 -61 45 -68 45 -15 0 -457 -438 -728 -720
-691 -723 -1342 -1500 -1936 -2310 -86 -118 -160 -216 -165 -218 -4 -1 -12 3
-18 11 -9 11 19 56 134 213 708 964 1408 1785 2228 2613 291 293 435 432 827
797 l56 52 -85 63 c-290 215 -616 624 -672 845 -85 330 116 967 537 1704 102
178 98 174 100 85 5 -150 88 -495 233 -960 39 -126 82 -275 96 -330 100 -409
88 -865 -31 -1193 -13 -36 -23 -68 -21 -69 2 -2 76 60 166 138 89 77 227 194
305 260 167 138 219 207 283 371 55 141 57 159 33 271 -79 365 -32 716 134
996 52 86 166 226 207 253 l25 16 6 -201 c12 -352 9 -503 -12 -602 -36 -176
-120 -344 -235 -473 -31 -35 -56 -69 -56 -77 0 -28 -62 -210 -92 -269 -16 -32
-28 -59 -26 -61 2 -2 57 40 123 92 355 281 806 610 1175 856 l225 150 -60 121
c-105 208 -165 422 -185 658 -12 140 -5 207 29 299 29 76 103 198 186 306 94
121 399 423 581 574 139 117 532 416 574 439 15 8 14 1 -10 -48 -67 -135 -141
-416 -235 -883 -35 -178 -80 -374 -100 -436 -92 -291 -235 -560 -406 -763 -62
-73 -62 -74 -23 -51 21 13 118 69 214 124 96 55 177 101 179 103 2 2 -2 10 -9
19 -11 13 0 21 81 59 421 196 1014 259 1712 181 131 -15 240 -25 243 -23 2 3
3 1220 2 2705 l-3 2699 -145 -69z"/>
<path d="M35105 11880 c-165 -11 -381 -42 -532 -76 -65 -14 -122 -28 -127 -31
-20 -13 335 -150 550 -212 498 -144 1014 -190 1504 -135 136 15 354 53 445 77
l49 13 -54 16 c-30 9 -242 72 -470 141 -228 69 -472 137 -541 151 -246 51
-569 72 -824 56z"/>
<path d="M0 5361 l0 -5361 9152 0 9152 0 -135 79 c-726 424 -1448 916 -2530
1723 l-307 228 -6681 0 -6681 0 -2 3932 -3 3933 -270 118 c-457 199 -1595 677
-1674 702 l-21 6 0 -5360z"/>
<path d="M36055 10474 c-2566 -1414 -4237 -2381 -5095 -2949 -395 -262 -521
-366 -890 -742 -746 -756 -1991 -2197 -3725 -4308 l-328 -400 457 -3 457 -2
167 127 c1080 824 2002 1574 2837 2307 1040 914 1957 1845 2407 2444 55 73
108 137 118 142 33 18 79 11 105 -15 14 -13 25 -31 25 -39 0 -38 -232 -339
-475 -616 -455 -519 -1184 -1237 -1924 -1894 -823 -732 -1850 -1573 -2860
-2342 l-143 -109 148 -3 148 -3 111 68 c819 499 2051 1294 2615 1688 587 410
835 618 1345 1130 1063 1067 2800 3113 4605 5425 100 129 187 241 193 248 5 6
8 12 6 12 -2 -1 -139 -75 -304 -166z m-2415 -2294 c42 -42 31 -62 -143 -239
-89 -91 -260 -266 -379 -388 -209 -214 -219 -223 -256 -223 -49 0 -82 29 -82
72 0 33 -35 -4 554 596 198 202 198 202 242 202 31 0 50 -6 64 -20z"/>
<path d="M2010 5970 l0 -3900 6632 0 c5622 0 6630 2 6618 14 -23 21 -663 499
-1000 746 -3435 2520 -7254 4757 -11280 6607 -341 157 -956 433 -965 433 -3 0
-5 -1755 -5 -3900z"/>
<path d="M15725 1844 c1018 -759 1778 -1276 2460 -1674 116 -67 220 -133 232
-146 l22 -24 2923 1 c1701 0 2914 4 2901 9 -35 14 -58 56 -45 83 11 25 518
658 1117 1396 220 271 408 504 418 517 l19 24 -5148 0 -5148 0 249 -186z"/>
<path d="M25706 1693 c-514 -632 -994 -1228 -991 -1231 10 -12 2046 1465 2150
1559 5 5 -186 9 -438 9 l-446 0 -275 -337z"/>
<path d="M26880 1843 c-135 -102 -414 -309 -620 -460 -341 -250 -415 -307
-385 -291 56 30 1515 916 1530 929 5 5 -52 9 -135 8 l-145 0 -245 -186z"/>
</g>
</svg>
